<?xml version="1.0" encoding="utf-8"?>
<!-- Generator: Adobe Illustrator 27.3.1, SVG Export Plug-In . SVG Version: 6.00 Build 0)  -->
<svg version="1.1" id="Layer_1" xmlns="http://www.w3.org/2000/svg" xmlns:xlink="http://www.w3.org/1999/xlink" x="0px" y="0px"
	 viewBox="0 0 172.2 63.1" style="enable-background:new 0 0 172.2 63.1;" xml:space="preserve">
<path d="M80.5,23.2c0.1,0,0.3,0,0.4,0c0.7,0,1.4,0.4,1.9,1c0.2,0.2,0.4,0.5,0.5,0.8c0.2,0.4,0.4,0.9,0.6,1.3c0.3,0.9,0.7,1.8,1,2.8
	c1.5,4,2.9,8,4.4,12.1c1,2.6,1.9,5.3,2.8,7.9l0.1,0.3c0.2,0,0.5,0,0.7,0c0-0.1,0.1-0.2,0.1-0.3c1.3-3.6,2.6-7.1,3.9-10.7l1.9-5.3
	c0-0.1,0.1-0.3,0.2-0.4l0.2,0.4c0.4,1,0.8,2,1.1,2.9c1.6,4.2,3.2,8.5,4.8,12.7c0,0.2,0.1,0.3,0.2,0.5c0.2,0,0.5,0,0.7,0
	c0-0.1,0.1-0.2,0.1-0.4c0.3-0.8,0.5-1.6,0.8-2.5c1.5-4.7,3.1-9.4,4.8-14c0.8-2.2,1.6-4.4,2.5-6.7c0.2-0.4,0.3-0.8,0.5-1.2
	c0.2-0.4,0.6-0.8,1-0.9c0.4-0.2,0.8-0.3,1.2-0.3c0.2,0,0.3,0,0.5,0c0.5,0.1,1,0.4,1.4,0.7c0.3,0.3,0.5,0.6,0.8,0.9
	c0.2,0.2,0.3,0.5,0.3,0.7c0,5.8,0,11.5,0,17.3c0,0.5,0,1,0,1.5c0,0.6-0.1,1.1-0.3,1.7c-0.2,0.7-0.7,1.2-1.4,1.4
	c-0.3,0.1-0.6,0.2-0.9,0.2c-0.4,0.1-0.8,0.1-1.2,0.2c-0.1,0.3-0.1,0.6,0,0.9h9h0.3c0.1-0.3,0.1-0.6,0-0.9l-0.6-0.1
	c-0.5-0.1-1-0.2-1.4-0.4c-0.6-0.2-1-0.7-1.2-1.3c-0.1-0.2-0.1-0.5-0.2-0.8c-0.1-0.8-0.2-1.6-0.2-2.5c0-3.7,0-7.5,0-11.2
	c0-1.2,0-2.4,0-3.6c0-0.1,0-0.2,0-0.3c0.2,0,0.2,0.2,0.3,0.3l3.8,4.8l13,16.2c0.1,0.1,0.2,0.2,0.3,0.3h0.4c0.2,0,0.3,0,0.4-0.1
	c0-0.2,0-0.3,0-0.5c0-5,0-10.1,0-15.1c0-1.9,0-3.8,0-5.7c0-0.7,0.1-1.5,0.2-2.2c0.1-0.3,0.2-0.7,0.3-1c0.3-0.7,0.9-1.2,1.6-1.3
	l0.6-0.1c0.7-0.1,1.4-0.1,2,0.2c0.6,0.2,1,0.6,1.1,1.2c0.1,0.4,0.1,0.7,0.2,1.1c0,0.4,0,0.8,0,1.2v17.1c0,0.4,0,0.8,0,1.2
	c0,0.3-0.1,0.7-0.1,1c-0.1,0.6-0.6,1.2-1.2,1.3c-0.3,0.1-0.7,0.1-1,0.2h-0.5l-0.5,0.1c0,0.3,0,0.6,0,0.9c0.2,0,0.4,0,0.6,0h20.7h0.3
	c0-0.1,0.1-0.1,0.1-0.2c0.6-2.1,1.2-4.3,1.8-6.4c0-0.1,0-0.2,0-0.3c-0.4-0.1-0.9-0.1-1.3,0c-0.1,0.3-0.2,0.6-0.4,0.8
	c-0.3,0.7-0.8,1.4-1.2,2c-0.6,0.8-1.5,1.4-2.4,1.8c-0.3,0.1-0.7,0.2-1,0.3c-0.8,0.2-1.6,0.3-2.5,0.3c-1.7,0.1-3.4,0.1-5.2,0
	c-0.4,0-0.8-0.1-1.1-0.2c-0.4-0.2-0.7-0.5-0.7-1c0-0.2,0-0.4,0-0.6c0-3,0-6,0-9c0-0.1,0-0.2,0-0.3c0,0,0-0.1,0-0.1
	c0.1,0,0.3,0,0.4,0c0.6,0,1.1,0,1.7,0h4.1c0.6,0,1.3,0.1,1.9,0.2c0.8,0.1,1.4,0.7,1.7,1.4c0.1,0.2,0.1,0.3,0.2,0.5
	c0.1,0.4,0.2,0.9,0.3,1.2c0,0.2,0.1,0.3,0.1,0.5c0.4,0,0.7,0,1.1-0.1v-9.2c0-0.1,0-0.2,0-0.3c-0.4,0-0.7,0-1.1,0
	c0,0.1,0,0.3-0.1,0.4c0,0.3-0.1,0.7-0.2,1c-0.1,0.4-0.2,0.7-0.4,1.1c-0.3,0.5-0.7,0.9-1.2,1.1c-0.2,0.1-0.4,0.1-0.5,0.1
	c-0.5,0.1-1.1,0.2-1.7,0.2c-0.7,0-1.3,0-2,0H151c-0.2,0-0.3,0-0.5,0c0-0.1,0-0.3,0-0.4v-8.3c0-0.2,0-0.5,0-0.7
	c0-0.3,0.3-0.6,0.6-0.6c0.1,0,0.3,0,0.4,0h6.7c0.5,0,0.9,0,1.4,0.1c0.5,0,0.9,0.2,1.4,0.3c0.5,0.2,1,0.6,1.2,1.1
	c0.1,0.3,0.3,0.5,0.3,0.8c0.1,0.5,0.2,1,0.4,1.5c0,0.1,0,0.2,0.1,0.3c0.4,0,0.8,0,1.1,0c0-0.1,0-0.2,0-0.3l-0.1-5.1
	c0-0.2,0-0.3,0-0.5c-0.2,0-0.4,0-0.6,0h-28.6c-0.1,0-0.2,0-0.3,0c-0.1,0.3-0.1,0.6,0,0.9l0.8,0c0.5,0,0.9,0.1,1.4,0.3
	c0.6,0.2,1.1,0.7,1.4,1.3c0.1,0.3,0.2,0.7,0.2,1.1c0.1,0.7,0.1,1.3,0.1,2v13.1c0,0.1,0,0.2-0.1,0.2l-0.2-0.2l-3.9-4.9
	c-3.6-4.5-7.1-8.9-10.7-13.4l-0.3-0.3h-13.3c-0.1,0-0.2,0-0.2,0c-0.1,0.3-0.1,0.6,0,0.9l1.1,0.1c0.3,0,0.7,0.1,1,0.3
	c0.3,0.1,0.5,0.4,0.6,0.8c0,0.2,0,0.3,0,0.5c0,0.3,0,0.6-0.1,0.9c-0.1,0.7-0.3,1.4-0.6,2l-3.4,9.3c-0.4,1.1-0.9,2.3-1.2,3.4
	c0,0.1,0,0.3-0.2,0.3c-0.1-0.1-0.2-0.3-0.2-0.5c-1.5-3.9-3.1-7.8-4.6-11.7c-0.4-1-0.8-2.1-1.2-3.1c-0.1-0.3-0.2-0.6-0.2-0.8
	c-0.1-0.4,0.1-0.9,0.5-1.1c0.3-0.1,0.5-0.3,0.8-0.3c0.4-0.1,0.9-0.1,1.3-0.2h0.3c0.1-0.3,0.1-0.6,0-0.9c-0.4-0.1-8.7-0.1-10.4,0
	h-0.3c-0.1,0.3-0.1,0.6,0,0.9H93l0.9,0.1c0.8,0,1.6,0.5,1.9,1.3c0.2,0.3,0.4,0.7,0.6,1.1c0.5,1.4,1.1,2.8,1.6,4.2
	c0.1,0.1,0.1,0.3,0,0.4c-0.2,0.4-0.3,0.9-0.5,1.3c-1.1,2.9-2.2,5.9-3.3,8.9c0,0.1-0.1,0.3-0.2,0.4c-0.1-0.1-0.2-0.2-0.2-0.4
	l-5.4-14.2c-0.2-0.5-0.3-1-0.4-1.6c-0.1-0.9,0.3-1.2,0.9-1.2c0.6-0.1,0.9-0.1,1.2-0.2h0.3c0.1-0.3,0.1-0.6,0-0.9h-9.6h-0.3V23.2z"/>
<path d="M82.7,30.5c-0.6-2.1-1.8-3.9-3.3-5.4c-2.1-2-4.8-3.2-7.6-3.4c-1.5-0.2-3-0.1-4.5,0.2c-4.1,0.8-7.5,3.6-9,7.5
	c-0.8,2-1.1,4.1-1.1,6.3c0,0.4,0,1.1,0.1,1.8c0.1,1.4,0.5,2.8,1.1,4.2c1.3,3.3,4,5.9,7.4,7c1.8,0.6,3.6,0.8,5.5,0.7
	c0.9-0.1,1.7-0.2,2.6-0.4c2.5-0.6,4.8-2,6.5-4c1.4-1.7,2.3-3.6,2.8-5.7c0.2-1,0.3-2.1,0.4-3.2C83.5,34.2,83.2,32.3,82.7,30.5
	 M77.9,41.1c-0.2,1-0.6,2-1.1,2.8c-0.3,0.4-0.5,0.8-0.8,1.2c-1,1.3-2.5,2.2-4.1,2.5c-1.1,0.2-2.3,0.2-3.4-0.1
	c-1.4-0.3-2.6-1.1-3.5-2.2c-1-1.1-1.7-2.3-2.1-3.7c-0.4-1.1-0.6-2.2-0.7-3.3c-0.2-1.2-0.2-2.5-0.2-3.7c0.1-2.1,0.5-4.2,1.2-6.2
	c0.2-0.6,0.5-1.1,0.8-1.7c1-1.6,2.5-2.8,4.3-3.3c1.7-0.5,3.6-0.4,5.2,0.5c1.3,0.6,2.4,1.6,3.2,2.9c0.7,1.1,1.2,2.3,1.5,3.5
	c0.3,1.1,0.5,2.1,0.5,3.2c0,0.6,0,1.2,0.1,1.8c0,1.9-0.3,3.9-0.7,5.8"/>
<path d="M59.9,47.9l-0.8-0.1c-1-0.1-1.8-0.5-2.5-1.2L56.2,46l-5.8-7.3l-1.8-2.2c0-0.1-0.2-0.2-0.1-0.3h0.2c0.8-0.1,1.5-0.3,2.3-0.6
	c0.9-0.3,1.7-0.7,2.4-1.2c1-0.8,1.7-1.9,2-3.2c0.3-1.5,0.2-3.1-0.5-4.5c-0.4-0.9-1-1.7-1.9-2.2c-0.3-0.2-0.7-0.4-1-0.6
	c-1.5-0.7-3.1-1.1-4.7-1.2c-0.9-0.1-1.8-0.1-2.6-0.1H34.4c-0.1,0-0.2,0-0.2,0c0,0.3,0,0.6,0,0.9c0.3,0,0.6,0.1,0.9,0.1
	c0.3,0,0.7,0.1,1.1,0.2c0.6,0.1,1.1,0.7,1.2,1.3c0,0.1,0,0.1,0,0.2c0.1,0.6,0.1,1.1,0.1,1.7v17.3c0,0.4,0,0.8,0,1.2
	c0,0.4-0.1,0.8-0.2,1.2c-0.1,0.4-0.3,0.8-0.7,1c-0.5,0.3-1.1,0.5-1.7,0.3c-0.1,0-0.1,0-0.2,0c-0.9,0-1.8-0.3-2.6-0.8
	c-0.4-0.3-0.8-0.6-1.2-1c-0.8-0.7-1.6-1.5-2.3-2.2l-5.7-6.4c-2.1-2.3-4.1-4.5-6.2-6.8c-0.1-0.1-0.2-0.2-0.3-0.4l0.5-0.5l5.8-5.6
	l3.8-3.6c0.5-0.5,1.1-1,1.7-1.4c0.7-0.5,1.6-0.9,2.5-1c0.6-0.1,1.2-0.2,1.8-0.2l0.2-0.1c0-0.3,0-0.7,0-1.1c-0.2-0.1-0.4-0.1-0.6,0
	H20.2L20,16.8v0.5c0,0.2,0,0.3,0,0.5c0.1,0,0.2,0,0.3,0l1.4,0.1c0.3,0,0.6,0.1,0.8,0.2c0.3,0.1,0.6,0.4,0.6,0.8
	c0.1,0.4,0,0.8-0.2,1.1c-0.1,0.2-0.3,0.5-0.4,0.7c-0.2,0.3-0.5,0.6-0.8,0.9c-0.6,0.6-1.2,1.2-1.8,1.8L13,29.9l-1.6,1.5
	c-0.1,0.1-0.1,0.2-0.3,0.1c-0.2,0,0-0.3,0-0.4v-2.6c0-2.1,0-4.3,0-6.4c0-0.7,0-1.4,0.1-2.1c0.1-0.8,0.7-1.5,1.5-1.7l0.2-0.1
	c0.5-0.1,1-0.2,1.5-0.3h0.5l0.5-0.1c0.1-0.4,0.1-0.7,0-1.1c-0.2,0-0.4,0-0.6,0H1.9c-0.1,0-0.2,0-0.3,0c-0.1,0.4-0.1,0.7,0,1.1h0.3
	c0.6,0,1.2,0.1,1.8,0.3c0.3,0.1,0.6,0.2,0.8,0.3c0.5,0.2,0.9,0.6,1,1.1c0.1,0.2,0.1,0.4,0.2,0.5c0.1,0.6,0.2,1.2,0.2,1.8v6
	c0,5,0,10.1,0,15.1c0,0.6,0,1.2-0.1,1.8c0,0.3-0.1,0.7-0.2,1c-0.2,0.8-0.8,1.4-1.5,1.6c-0.5,0.1-0.9,0.2-1.4,0.3H2.2H1.6
	c0,0.4,0,0.7,0,1.1c0.2,0,0.4,0,0.5,0h13c0.1,0,0.1,0,0.2,0c0-0.4,0-0.7,0-1.1l-0.9-0.1c-0.5,0-1-0.1-1.5-0.3
	c-0.8-0.2-1.5-0.9-1.6-1.7c0-0.1,0-0.1,0-0.2c-0.1-0.7-0.2-1.4-0.2-2.1V35c0-0.1,0-0.2,0-0.3c0-0.1,0.1-0.2,0.1-0.2
	c0.3-0.3,0.7-0.6,1-0.8l0.3,0.3l4.3,4.4c1.5,1.5,3,3.1,4.3,4.6c0.5,0.5,0.9,1.1,1.3,1.6c0.3,0.3,0.5,0.7,0.7,1.1
	c0.1,0.2,0.2,0.4,0.2,0.6c0.1,0.4-0.1,0.8-0.4,1c-0.1,0.1-0.2,0.1-0.4,0.2c-0.2,0.1-0.5,0.1-0.7,0.1c-0.5,0-1,0.1-1.4,0.1h-0.3
	c-0.1,0.4-0.1,0.7,0,1.1c0.2,0,0.4,0,0.5,0h7.3c2.5,0,4.9,0,7.4,0c3.1,0,6.2,0,9.2,0h0.4h0.3c0.1-0.3,0.1-0.6,0-0.9
	c-0.4,0-0.7-0.1-1.1-0.1c-0.4,0-0.8-0.1-1.2-0.3c-0.5-0.2-0.8-0.5-1-1c-0.1-0.3-0.1-0.6-0.2-0.9c0-0.5-0.1-1.1-0.1-1.6
	c0-2.3,0-4.6,0-6.8c0-0.1,0-0.2,0-0.3c0-0.1,0-0.2,0-0.2c0.7-0.1,1.3-0.1,2-0.1l0.3,0.4l8.9,11.6l0.3,0.3h6.3c0.1,0,0.2,0,0.2,0
	C60.1,48.5,60.1,48.2,59.9,47.9 M42.3,34.9h-0.5c0-0.2,0-0.3,0-0.5c0-3,0-6,0-8.9c0-0.2,0-0.4,0-0.6c0-0.5,0.4-1,1-1
	c0.2,0,0.4-0.1,0.6-0.1c1.4-0.1,2.9,0.1,4.2,0.6c0.4,0.1,0.8,0.3,1.1,0.5c1.1,0.6,1.9,1.7,2.1,2.9c0.2,1.2,0.2,2.4-0.2,3.5
	c-0.2,0.5-0.4,1-0.8,1.4c-0.3,0.4-0.7,0.7-1.2,1c-1.1,0.6-2.4,1-3.7,1.1C44.1,34.9,43.2,34.9,42.3,34.9"/>
<path d="M170.5,24.6c0,1.4-1,2.5-2.4,2.6c-1.4,0-2.5-1-2.6-2.4c0-1.4,1-2.5,2.4-2.6c0,0,0.1,0,0.1,0
	C169.4,22.2,170.5,23.2,170.5,24.6C170.5,24.6,170.5,24.6,170.5,24.6 M166.2,24.6c0,1,0.8,1.9,1.8,1.9c0,0,0,0,0.1,0
	c1.1,0,1.9-0.9,1.9-1.9c0-1.1-0.9-1.9-1.9-1.9C167.1,22.7,166.3,23.5,166.2,24.6C166.3,24.6,166.3,24.6,166.2,24.6 M167.7,25.9h-0.6
	v-2.4c0.3-0.1,0.6-0.1,0.9-0.1c0.3,0,0.6,0,0.8,0.2c0.2,0.1,0.2,0.3,0.2,0.5c0,0.3-0.2,0.5-0.5,0.5l0,0c0.2,0.1,0.4,0.3,0.4,0.6
	c0,0.2,0.1,0.4,0.2,0.6h-0.6c-0.1-0.2-0.2-0.4-0.2-0.6c0-0.3-0.2-0.4-0.5-0.4h-0.3V25.9z M167.7,24.5h0.3c0.3,0,0.5-0.1,0.5-0.4
	c0-0.2-0.2-0.4-0.5-0.4h-0.3V24.5z"/>
<path d="M70.3,19.5c4.5,0.1,6.6,1.2,7.3,1.6c0.1,0.1,0.2,0,0.3-0.1c0,0,0,0,0,0l3-7.6c0-0.1,0-0.1-0.1-0.1l-3.1,3.6
	c0,0-0.9,0.9-0.9-1.1V13c0,0-0.1-0.1-0.1,0c0,0,0,0,0,0l-2.1,2.7c0,0-1,1.2-1.8-0.3c-0.6-1.2-1.9-5.8-2.3-7c0,0,0-0.1-0.1-0.1
	c0,0-0.1,0-0.1,0.1c-0.3,1.2-1.7,5.7-2.3,7c-0.8,1.6-1.7,0.3-1.7,0.3L64,13c0,0-0.1-0.1-0.1,0c0,0,0,0,0,0v2.8c0,2-0.9,1.1-0.9,1.1
	l-3.1-3.5 M59.8,13.4l2.9,7.7c0,0.1,0.2,0.2,0.3,0.1c0,0,0,0,0,0c0.6-0.4,2.7-1.6,7.2-1.7"/>
<path d="M71.1,6.9c0,0.5-0.4,0.9-0.9,0.9s-0.9-0.4-0.9-0.9c0-0.5,0.4-0.9,0.9-0.9c0,0,0,0,0,0C70.7,6,71.1,6.4,71.1,6.9"/>
<path d="M64.3,11.6c0,0.5-0.4,0.9-0.9,0.9c-0.5,0-0.9-0.4-0.9-0.9c0-0.5,0.4-0.9,0.9-0.9C63.9,10.7,64.3,11.1,64.3,11.6
	C64.3,11.6,64.3,11.6,64.3,11.6"/>
<path d="M59.9,12.1c0,0.5-0.4,0.9-0.9,0.9c-0.5,0-0.9-0.4-0.9-0.9c0-0.5,0.4-0.9,0.9-0.9c0,0,0,0,0,0C59.5,11.2,59.9,11.6,59.9,12.1
	"/>
<path d="M76.2,11.6c0,0.5,0.4,0.9,0.9,0.9c0.5,0,0.9-0.4,0.9-0.9c0-0.5-0.4-0.9-0.9-0.9C76.6,10.7,76.2,11.1,76.2,11.6
	C76.2,11.6,76.2,11.6,76.2,11.6"/>
<path d="M80.6,12.1c0,0.5,0.4,0.9,0.9,0.9s0.9-0.4,0.9-0.9c0-0.5-0.4-0.9-0.9-0.9c0,0,0,0,0,0C81,11.2,80.6,11.6,80.6,12.1"/>
</svg>
